<?xml version="1.0" encoding="UTF-8"?>
<svg id="Camada_2" data-name="Camada 2" xmlns="http://www.w3.org/2000/svg" viewBox="0 0 305.55 420.16">
  <defs>
    <style>
      .cls-1 {
        fill: #2f3543;
      }

      .cls-2 {
        fill: #22652c;
      }

      .cls-2, .cls-3, .cls-4, .cls-5, .cls-6, .cls-7, .cls-8, .cls-9, .cls-10, .cls-11, .cls-12, .cls-13, .cls-14, .cls-15, .cls-16 {
        fill-rule: evenodd;
      }

      .cls-3 {
        fill: #1b3f1e;
      }

      .cls-4 {
        fill: #240d1b;
      }

      .cls-5 {
        fill: #82bb26;
      }

      .cls-6 {
        fill: #1a3c1e;
      }

      .cls-7 {
        fill: #00657f;
      }

      .cls-8 {
        fill: #1aa2b2;
      }

      .cls-9 {
        fill: #1a9fb2;
      }

      .cls-10 {
        fill: #00415a;
      }

      .cls-11 {
        fill: #003e58;
      }

      .cls-12 {
        fill: #036c82;
      }

      .cls-13 {
        fill: #41bccf;
      }

      .cls-14 {
        fill: #3c8834;
      }

      .cls-15 {
        fill: #297030;
      }

      .cls-16 {
        fill: #1c0918;
      }
    </style>
  </defs>
  <g id="Camada_1-2" data-name="Camada 1">
    <g>
      <path class="cls-10" d="M135.04,342.43c8.27.1,16.42,0,24.44-.3,5.79,9.85,13.45,18.47,22.5,25.36h0c-14.86-1.2-28.15-2.49-40.22-3.87-3.35-6.51-5.66-13.65-6.71-21.19"/>
      <path class="cls-12" d="M136.47,316.56c4.3-.27,8.57-.58,12.81-.94,1.94,9.44,5.41,18.33,10.13,26.39-8.13.32-16.25.46-24.37.42-.43-3.04-.65-6.15-.65-9.31,0-5.72.72-11.27,2.08-16.56"/>
      <path class="cls-12" d="M98.56,317.91c2.86-.03,5.68-.08,8.47-.14-1.44,7.63-1.57,15.65-.59,23.73-7.03-.42-14.06-.99-21.08-1.71,3.18-7.76,7.67-15.21,13.21-21.89"/>
      <path class="cls-9" d="M106.94,318.27c.76-4.17,1.9-8.22,3.47-12.09-4.5,3.64-8.61,7.76-12.25,12.22,2.92-.02,5.85-.06,8.77-.12"/>
      <path class="cls-9" d="M149.34,315.86c-1.21-5.78-1.84-11.78-1.84-17.92,0-1.57.04-3.12.12-4.67-5.2,6.96-9.07,14.96-11.24,23.64,4.32-.3,8.64-.65,12.95-1.05"/>
      <path class="cls-9" d="M160.78,248.98h0c-47.15,7.85-87.81,4.96-138.57-2.41h0c-9.91,19.92-13.51,43.28-9.51,66.59,17.64,2.28,35.32,3.82,53.01,4.62,18.25-32.8,54.35-57.97,88.41-66.7,2.39-.61,4.61-1.32,6.66-2.09"/>
      <path class="cls-7" d="M47.49,214.4l.25-.21s.02-.02.03-.03c11.79-9.74,26.14-16.87,42.65-20.25,48.59-9.95,81.13,6.35,88.7,24.47h0c-42.22,4.05-86.02,3.59-131.37-4.18h-.02s-.24.2-.24.2h0Z"/>
      <path class="cls-11" d="M47.73,214.2c45.46,7.18,89.16,8.24,131.39,4.18,4.84,11.57-.49,23.89-18.34,30.6-47.15,7.85-90.37,4.71-138.57-2.41,6.17-12.4,14.78-23.47,25.52-32.36"/>
      <path class="cls-6" d="M305.55,190.47v4.73h0c-36.23,19.74-68.3,33.48-98.03,42.65.41-2.1.75-4.38.99-6.87.55-5.63.09-11.01-1.18-16.1,33.61-5.11,66.3-13.41,98.22-24.4"/>
      <path class="cls-2" d="M305.55,137.58v26.56s0,26.33,0,26.33c-31.92,10.99-64.61,19.3-98.22,24.4-3-12.02-10.58-22.39-20.28-30.45,38.68-9.07,78.11-24.86,118.51-46.85"/>
      <path class="cls-9" d="M305.55,195.2h0c-36.23,19.74-68.3,33.48-98.03,42.65-6.14,31.33-29.71,22.89-30.11,62.79-.04,4.14.32,8.08,1.05,11.81,44.47-6.09,86.68-17.31,126.99-32.87.07-1.74.1-3.52.1-5.32v-79.06s0-1.79,0-1.79v1.79Z"/>
      <path class="cls-10" d="M192.96,339.67c34.12-3.39,68.33-9.82,102.61-18.87-22.22,43.46-75.94,45.32-102.61,18.87"/>
      <path class="cls-13" d="M129.18,394.92c-12.11.6-23.22.97-37.62,1.1-.54.03-1.89.2-2.03.02,12.04,15.69,34.67,25.88,73.62,23.87-12.56-3.8-24.37-12.95-33.98-24.98"/>
      <path class="cls-13" d="M162.66,387.63l-.28-.2h0s.28.2.28.2ZM220.44,384.11c-15.23,2.95-31.69,5.63-51.03,7.7,9.41,5.09,20.19,7.98,31.64,7.98,15.91,0,30.52-5.57,41.97-14.87-2.69.25-5.42.38-8.18.38-4.91,0-9.72-.41-14.41-1.19Z"/>
      <path class="cls-10" d="M16.23,327.77v.02c13.81,3.42,27.63,6.2,41.47,8.4-1.15,3.64-2.07,7.33-2.75,11.09-11.98-3.39-23.49-7.14-35.81-11.3-1.08-2.72-2.05-5.46-2.91-8.21"/>
      <path class="cls-12" d="M12.7,313.15l-.02-.09c17.64,2.27,35.34,3.92,53.03,4.72h0c-3.29,5.91-6,12.07-8.01,18.42-13.84-2.2-27.66-4.98-41.46-8.4-1.53-4.89-2.7-9.72-3.54-14.65"/>
      <path class="cls-14" d="M.01,88.68c0-.15,0-.3.02-.44,0,.15-.01.3-.02.44M0,89.21c0-.16,0-.31,0-.47,0,.16,0,.31,0,.47ZM305.55,137.58c-40.39,21.99-79.83,37.78-118.51,46.85-5.25-4.36-11.13-8.04-17.24-10.93-26.09-12.32-57.16-12.6-84.96-6.91-16,3.28-30.91,9.45-44.15,18.17-13.63-3.38-27.18-7.76-40.68-13.17H0S0,164.12,0,164.12v-15.73s0-59.18,0-59.18v4.47c115.98,54.24,214.85,58.02,305.54,37.47v6.43Z"/>
      <path class="cls-5" d="M305.55,131.15c0-13.98,0-27.95,0-41.93,0-10.57-8.65-19.22-19.22-19.22-12.17,0-24.34,0-36.51,0h-15.73c-54.21,0-108.42,0-162.63,0-5.24,0-10.49,0-15.73,0-12.17,0-24.34,0-36.51,0C8.66,69.99,0,78.64,0,89.21v4.47c115.98,54.24,214.85,58.02,305.54,37.47"/>
      <path class="cls-10" d="M85.44,339.6c7.08.71,14.07,1.29,20.98,1.73.72,6.03,2.05,12.08,3.92,18.02-10.63-1.69-20.23-3.52-29.22-5.49.93-4.8,2.39-9.59,4.32-14.26"/>
      <path class="cls-4" d="M15.17,324.18c.12.45.25.9.39,1.35-.13-.45-.26-.9-.39-1.35"/>
      <path class="cls-12" d="M178.47,312.45c44.46-6.09,86.67-17.31,126.97-32.87-.64,16.55-4.24,30.22-9.87,41.22-34.28,9.06-68.48,15.48-102.61,18.87-7.17-7.11-12.37-16.28-14.49-27.23"/>
      <path class="cls-3" d="M0,204.54c4.86,1.2,9.69,2.32,14.51,3.38-2.21,2.59-4.33,5.29-6.34,8.08-2.99,4.14-5.7,8.43-8.16,12.86v-24.32Z"/>
      <path class="cls-15" d="M40.68,184.76c-9.7,6.39-18.5,14.16-26.17,23.16-4.82-1.06-9.65-2.18-14.51-3.38v24.32-57.27s0,0,0,0c13.5,5.41,27.06,9.79,40.68,13.17"/>
      <path class="cls-1" d="M24.66,0c13.28,0,24.05,10.77,24.05,24.05s-10.77,24.05-24.05,24.05C11.38,48.1.61,37.33.61,24.05S11.38,0,24.66,0"/>
      <path class="cls-1" d="M88.68,0C101.96,0,112.73,10.77,112.73,24.06c0,13.28-10.77,24.05-24.05,24.05s-24.05-10.77-24.05-24.05C64.63,10.77,75.4,0,88.68,0"/>
      <path class="cls-1" d="M152.69,0c13.28,0,24.05,10.77,24.05,24.05s-10.77,24.05-24.05,24.05c-13.28,0-24.05-10.77-24.05-24.05S139.41,0,152.69,0"/>
      <path class="cls-1" d="M216.71,0c13.28,0,24.05,10.77,24.05,24.05,0,13.28-10.77,24.05-24.05,24.05-13.28,0-24.05-10.77-24.05-24.05,0-13.28,10.77-24.05,24.05-24.05"/>
      <path class="cls-1" d="M280.72.01c13.28,0,24.05,10.77,24.05,24.05s-10.77,24.05-24.05,24.05c-13.28,0-24.05-10.77-24.05-24.05S267.44.01,280.72.01"/>
      <path class="cls-16" d="M19.14,335.98c12.32,4.16,23.83,7.91,35.81,11.3-2.3,12.78-1.71,26.2,2.63,39.86-18.48-15.05-31.07-32.71-38.44-51.17M129.18,394.92c-12.11.6-25.25.99-39.64,1.12-9.14-12.04-11.36-27.24-8.38-42.35,11.17,2.56,19.54,4.15,29.17,5.63,4.07,12.95,10.66,25.32,18.85,35.6ZM220.44,384.11c-15.23,2.95-31.69,5.63-51.03,7.7-11.82-6.39-21.49-16.24-27.65-28.2,12.07,1.39,25.36,2.68,40.22,3.87h0c11.05,8.41,24.17,14.25,38.46,16.63Z"/>
      <path class="cls-8" d="M19.14,335.98c12.32,4.16,23.83,7.91,35.81,11.3-2.3,12.78-1.71,26.2,2.63,39.87-18.48-15.05-31.07-32.71-38.44-51.17"/>
      <path class="cls-8" d="M129.18,394.92c-12.11.6-25.25.99-39.64,1.11-9.14-12.04-11.36-27.24-8.38-42.34,11.17,2.56,19.54,4.15,29.17,5.63,4.07,12.95,10.66,25.32,18.85,35.6"/>
      <path class="cls-8" d="M220.44,384.11c-15.23,2.95-31.69,5.63-51.03,7.7-11.82-6.39-21.49-16.24-27.65-28.2,12.07,1.39,25.36,2.68,40.22,3.87h0c11.05,8.41,24.16,14.25,38.45,16.63"/>
      <path class="cls-10" d="M135.04,342.43c8.27.1,16.42,0,24.44-.3,5.79,9.85,13.45,18.47,22.5,25.36h0c-14.86-1.2-28.15-2.49-40.22-3.87-3.35-6.51-5.66-13.65-6.71-21.19"/>
      <path class="cls-12" d="M136.47,316.56c4.3-.27,8.57-.58,12.81-.94,1.94,9.44,5.41,18.33,10.13,26.39-8.13.32-16.25.46-24.37.42-.43-3.04-.65-6.15-.65-9.31,0-5.72.72-11.27,2.08-16.56"/>
      <path class="cls-12" d="M98.56,317.91c2.86-.03,5.68-.08,8.47-.14-1.44,7.63-1.57,15.65-.59,23.73-7.03-.42-14.06-.99-21.08-1.71,3.18-7.76,7.67-15.21,13.21-21.89"/>
      <path class="cls-9" d="M106.94,318.27c.76-4.17,1.9-8.22,3.47-12.09-4.5,3.64-8.61,7.76-12.25,12.22,2.92-.02,5.85-.06,8.77-.12"/>
      <path class="cls-9" d="M149.34,315.86c-1.21-5.78-1.84-11.78-1.84-17.92,0-1.57.04-3.12.12-4.67-5.2,6.96-9.07,14.96-11.24,23.64,4.32-.3,8.64-.65,12.95-1.05"/>
      <path class="cls-9" d="M160.78,248.98h0c-47.15,7.85-87.81,4.96-138.57-2.41h0c-9.91,19.92-13.51,43.28-9.51,66.59,17.64,2.28,35.32,3.82,53.01,4.62,18.25-32.8,54.35-57.97,88.41-66.7,2.39-.61,4.61-1.32,6.66-2.09"/>
      <path class="cls-7" d="M47.49,214.4l.25-.21s.02-.02.03-.03c11.79-9.74,26.14-16.87,42.65-20.25,48.59-9.95,81.13,6.35,88.7,24.47h0c-42.22,4.05-86.02,3.59-131.37-4.18h-.02s-.24.2-.24.2h0Z"/>
      <path class="cls-11" d="M47.73,214.2c45.46,7.18,89.16,8.24,131.39,4.18,4.84,11.57-.49,23.89-18.34,30.6-47.15,7.85-90.37,4.71-138.57-2.41,6.17-12.4,14.78-23.47,25.52-32.36"/>
      <path class="cls-6" d="M305.55,190.47v4.73h0c-36.23,19.74-68.3,33.48-98.03,42.65.41-2.1.75-4.38.99-6.87.55-5.63.09-11.01-1.18-16.1,33.61-5.11,66.3-13.41,98.22-24.4"/>
      <path class="cls-2" d="M305.55,137.58v26.56s0,26.33,0,26.33c-31.92,10.99-64.61,19.3-98.22,24.4-3-12.02-10.58-22.39-20.28-30.45,38.68-9.07,78.11-24.86,118.51-46.85"/>
      <path class="cls-9" d="M305.55,195.2h0c-36.23,19.74-68.3,33.48-98.03,42.65-6.14,31.33-29.71,22.89-30.11,62.79-.04,4.14.32,8.08,1.05,11.81,44.47-6.09,86.68-17.31,126.99-32.87.07-1.74.1-3.52.1-5.32v-79.06s0-1.79,0-1.79v1.79Z"/>
      <path class="cls-10" d="M192.96,339.67c34.12-3.39,68.33-9.82,102.61-18.87-22.22,43.46-75.94,45.32-102.61,18.87"/>
      <path class="cls-13" d="M129.18,394.92c-12.11.6-23.22.97-37.62,1.1-.54.03-1.89.2-2.03.02,12.04,15.69,34.67,25.88,73.62,23.87-12.56-3.8-24.37-12.95-33.98-24.98"/>
      <path class="cls-13" d="M162.66,387.63l-.28-.2h0s.28.2.28.2ZM220.44,384.11c-15.23,2.95-31.69,5.63-51.03,7.7,9.41,5.09,20.19,7.98,31.64,7.98,15.91,0,30.52-5.57,41.97-14.87-2.69.25-5.42.38-8.18.38-4.91,0-9.72-.41-14.41-1.19Z"/>
      <path class="cls-10" d="M16.23,327.77v.02c13.81,3.42,27.63,6.2,41.47,8.4-1.15,3.64-2.07,7.33-2.75,11.09-11.98-3.39-23.49-7.14-35.81-11.3-1.08-2.72-2.05-5.46-2.91-8.21"/>
      <path class="cls-12" d="M12.7,313.15l-.02-.09c17.64,2.27,35.34,3.92,53.03,4.72h0c-3.29,5.91-6,12.07-8.01,18.42-13.84-2.2-27.66-4.98-41.46-8.4-1.53-4.89-2.7-9.72-3.54-14.65"/>
      <path class="cls-14" d="M.01,88.68c0-.15,0-.3.02-.44,0,.15-.01.3-.02.44M0,89.21c0-.16,0-.31,0-.47,0,.16,0,.31,0,.47ZM305.55,137.58c-40.39,21.99-79.83,37.78-118.51,46.85-5.25-4.36-11.13-8.04-17.24-10.93-26.09-12.32-57.16-12.6-84.96-6.91-16,3.28-30.91,9.45-44.15,18.17-13.63-3.38-27.18-7.76-40.68-13.17H0S0,164.12,0,164.12v-15.73s0-59.18,0-59.18v4.47c115.98,54.24,214.85,58.02,305.54,37.47v6.43Z"/>
      <path class="cls-5" d="M305.55,131.15c0-13.98,0-27.95,0-41.93,0-10.57-8.65-19.22-19.22-19.22-12.17,0-24.34,0-36.51,0h-15.73c-54.21,0-108.42,0-162.63,0-5.24,0-10.49,0-15.73,0-12.17,0-24.34,0-36.51,0C8.66,69.99,0,78.64,0,89.21v4.47c115.98,54.24,214.85,58.02,305.54,37.47"/>
      <path class="cls-10" d="M85.44,339.6c7.08.71,14.07,1.29,20.98,1.73.72,6.03,2.05,12.08,3.92,18.02-10.63-1.69-20.23-3.52-29.22-5.49.93-4.8,2.39-9.59,4.32-14.26"/>
      <path class="cls-4" d="M15.17,324.18c.12.45.25.9.39,1.35-.13-.45-.26-.9-.39-1.35"/>
      <path class="cls-12" d="M178.47,312.45c44.46-6.09,86.67-17.31,126.97-32.87-.64,16.55-4.24,30.22-9.87,41.22-34.28,9.06-68.48,15.48-102.61,18.87-7.17-7.11-12.37-16.28-14.49-27.23"/>
      <path class="cls-3" d="M0,204.54c4.86,1.2,9.69,2.32,14.51,3.38-2.21,2.59-4.33,5.29-6.34,8.08-2.99,4.14-5.7,8.43-8.16,12.86v-24.32Z"/>
      <path class="cls-15" d="M40.68,184.76c-9.7,6.39-18.5,14.16-26.17,23.16-4.82-1.06-9.65-2.18-14.51-3.38v24.32-57.27s0,0,0,0c13.5,5.41,27.06,9.79,40.68,13.17"/>
      <path class="cls-1" d="M24.66,0c13.28,0,24.05,10.77,24.05,24.05s-10.77,24.05-24.05,24.05C11.38,48.1.61,37.33.61,24.05S11.38,0,24.66,0"/>
      <path class="cls-1" d="M88.68,0C101.96,0,112.73,10.77,112.73,24.06c0,13.28-10.77,24.05-24.05,24.05s-24.05-10.77-24.05-24.05C64.63,10.77,75.4,0,88.68,0"/>
      <path class="cls-1" d="M152.69,0c13.28,0,24.05,10.77,24.05,24.05s-10.77,24.05-24.05,24.05c-13.28,0-24.05-10.77-24.05-24.05S139.41,0,152.69,0"/>
      <path class="cls-1" d="M216.71,0c13.28,0,24.05,10.77,24.05,24.05,0,13.28-10.77,24.05-24.05,24.05-13.28,0-24.05-10.77-24.05-24.05,0-13.28,10.77-24.05,24.05-24.05"/>
      <path class="cls-1" d="M280.72.01c13.28,0,24.05,10.77,24.05,24.05s-10.77,24.05-24.05,24.05c-13.28,0-24.05-10.77-24.05-24.05S267.44.01,280.72.01"/>
      <path class="cls-16" d="M19.14,335.98c12.32,4.16,23.83,7.91,35.81,11.3-2.3,12.78-1.71,26.2,2.63,39.86-18.48-15.05-31.07-32.71-38.44-51.17M129.18,394.92c-12.11.6-25.25.99-39.64,1.12-9.14-12.04-11.36-27.24-8.38-42.35,11.17,2.56,19.54,4.15,29.17,5.63,4.07,12.95,10.66,25.32,18.85,35.6ZM220.44,384.11c-15.23,2.95-31.69,5.63-51.03,7.7-11.82-6.39-21.49-16.24-27.65-28.2,12.07,1.39,25.36,2.68,40.22,3.87h0c11.05,8.41,24.17,14.25,38.46,16.63Z"/>
      <path class="cls-8" d="M19.14,335.98c12.32,4.16,23.83,7.91,35.81,11.3-2.3,12.78-1.71,26.2,2.63,39.87-18.48-15.05-31.07-32.71-38.44-51.17"/>
      <path class="cls-8" d="M129.18,394.92c-12.11.6-25.25.99-39.64,1.11-9.14-12.04-11.36-27.24-8.38-42.34,11.17,2.56,19.54,4.15,29.17,5.63,4.07,12.95,10.66,25.32,18.85,35.6"/>
      <path class="cls-8" d="M220.44,384.11c-15.23,2.95-31.69,5.63-51.03,7.7-11.82-6.39-21.49-16.24-27.65-28.2,12.07,1.39,25.36,2.68,40.22,3.87h0c11.05,8.41,24.16,14.25,38.45,16.63"/>
    </g>
  </g>
</svg>